<mxfile host="app.diagrams.net" agent="Mozilla/5.0 (Windows NT 10.0; Win64; x64) AppleWebKit/537.36 (KHTML, like Gecko) Chrome/133.0.0.0 Safari/537.36 Edg/133.0.0.0" version="26.0.14">
  <diagram name="Página-1" id="WyUjAa4Jo-pIKM8Ton7K">
    <mxGraphModel dx="671" dy="367" grid="1" gridSize="10" guides="1" tooltips="1" connect="1" arrows="1" fold="1" page="1" pageScale="1" pageWidth="827" pageHeight="1169" math="0" shadow="0">
      <root>
        <mxCell id="0" />
        <mxCell id="1" parent="0" />
        <mxCell id="EqsUiykx_xDMBYJI1kq2-134" value="" style="endArrow=none;html=1;rounded=0;" edge="1" parent="1">
          <mxGeometry width="50" height="50" relative="1" as="geometry">
            <mxPoint x="370" y="630" as="sourcePoint" />
            <mxPoint x="450" y="630" as="targetPoint" />
          </mxGeometry>
        </mxCell>
        <mxCell id="EqsUiykx_xDMBYJI1kq2-135" value="" style="image;html=1;image=img/lib/clip_art/networking/Switch_128x128.png" vertex="1" parent="1">
          <mxGeometry x="370" y="590" width="40" height="40" as="geometry" />
        </mxCell>
        <mxCell id="EqsUiykx_xDMBYJI1kq2-136" value="" style="endArrow=none;html=1;rounded=0;fillColor=#dae8fc;strokeColor=#6c8ebf;strokeWidth=2;" edge="1" parent="1">
          <mxGeometry width="50" height="50" relative="1" as="geometry">
            <mxPoint x="370" y="632" as="sourcePoint" />
            <mxPoint x="391" y="611" as="targetPoint" />
          </mxGeometry>
        </mxCell>
        <mxCell id="EqsUiykx_xDMBYJI1kq2-137" value="" style="endArrow=none;html=1;rounded=0;fillColor=#f8cecc;strokeColor=#b85450;strokeWidth=2;exitX=0.16;exitY=0.55;exitDx=0;exitDy=0;exitPerimeter=0;" edge="1" parent="1" source="EqsUiykx_xDMBYJI1kq2-238">
          <mxGeometry width="50" height="50" relative="1" as="geometry">
            <mxPoint x="300" y="540" as="sourcePoint" />
            <mxPoint x="370" y="540" as="targetPoint" />
          </mxGeometry>
        </mxCell>
        <mxCell id="EqsUiykx_xDMBYJI1kq2-138" value="" style="endArrow=none;html=1;rounded=0;" edge="1" parent="1">
          <mxGeometry width="50" height="50" relative="1" as="geometry">
            <mxPoint x="370" y="1050" as="sourcePoint" />
            <mxPoint x="370" y="250" as="targetPoint" />
          </mxGeometry>
        </mxCell>
        <mxCell id="EqsUiykx_xDMBYJI1kq2-139" value="" style="endArrow=none;html=1;rounded=0;" edge="1" parent="1">
          <mxGeometry width="50" height="50" relative="1" as="geometry">
            <mxPoint x="370" y="250" as="sourcePoint" />
            <mxPoint x="610" y="250" as="targetPoint" />
          </mxGeometry>
        </mxCell>
        <mxCell id="EqsUiykx_xDMBYJI1kq2-140" value="" style="endArrow=none;html=1;rounded=0;" edge="1" parent="1">
          <mxGeometry width="50" height="50" relative="1" as="geometry">
            <mxPoint x="610" y="1050" as="sourcePoint" />
            <mxPoint x="610" y="250" as="targetPoint" />
          </mxGeometry>
        </mxCell>
        <mxCell id="EqsUiykx_xDMBYJI1kq2-141" value="" style="endArrow=none;html=1;rounded=0;" edge="1" parent="1">
          <mxGeometry width="50" height="50" relative="1" as="geometry">
            <mxPoint x="370" y="1050" as="sourcePoint" />
            <mxPoint x="610" y="1050" as="targetPoint" />
          </mxGeometry>
        </mxCell>
        <mxCell id="EqsUiykx_xDMBYJI1kq2-142" value="" style="endArrow=none;html=1;rounded=0;" edge="1" parent="1">
          <mxGeometry width="50" height="50" relative="1" as="geometry">
            <mxPoint x="490" y="1050" as="sourcePoint" />
            <mxPoint x="490" y="250" as="targetPoint" />
          </mxGeometry>
        </mxCell>
        <mxCell id="EqsUiykx_xDMBYJI1kq2-143" value="" style="endArrow=none;html=1;rounded=0;" edge="1" parent="1">
          <mxGeometry width="50" height="50" relative="1" as="geometry">
            <mxPoint x="370" y="410" as="sourcePoint" />
            <mxPoint x="490" y="410" as="targetPoint" />
          </mxGeometry>
        </mxCell>
        <mxCell id="EqsUiykx_xDMBYJI1kq2-144" value="" style="endArrow=none;html=1;rounded=0;" edge="1" parent="1">
          <mxGeometry width="50" height="50" relative="1" as="geometry">
            <mxPoint x="490" y="570" as="sourcePoint" />
            <mxPoint x="610" y="570" as="targetPoint" />
          </mxGeometry>
        </mxCell>
        <mxCell id="EqsUiykx_xDMBYJI1kq2-145" value="" style="endArrow=none;html=1;rounded=0;" edge="1" parent="1">
          <mxGeometry width="50" height="50" relative="1" as="geometry">
            <mxPoint x="450" y="1050" as="sourcePoint" />
            <mxPoint x="450" y="410" as="targetPoint" />
          </mxGeometry>
        </mxCell>
        <mxCell id="EqsUiykx_xDMBYJI1kq2-146" value="" style="endArrow=none;html=1;rounded=0;" edge="1" parent="1">
          <mxGeometry width="50" height="50" relative="1" as="geometry">
            <mxPoint x="370" y="890" as="sourcePoint" />
            <mxPoint x="450" y="890" as="targetPoint" />
          </mxGeometry>
        </mxCell>
        <mxCell id="EqsUiykx_xDMBYJI1kq2-147" value="" style="endArrow=none;html=1;rounded=0;" edge="1" parent="1">
          <mxGeometry width="50" height="50" relative="1" as="geometry">
            <mxPoint x="370" y="730" as="sourcePoint" />
            <mxPoint x="450" y="730" as="targetPoint" />
          </mxGeometry>
        </mxCell>
        <mxCell id="EqsUiykx_xDMBYJI1kq2-148" value="" style="endArrow=none;html=1;rounded=0;" edge="1" parent="1">
          <mxGeometry width="50" height="50" relative="1" as="geometry">
            <mxPoint x="370" y="530" as="sourcePoint" />
            <mxPoint x="450" y="530" as="targetPoint" />
          </mxGeometry>
        </mxCell>
        <mxCell id="EqsUiykx_xDMBYJI1kq2-149" value="" style="endArrow=none;html=1;rounded=0;" edge="1" parent="1">
          <mxGeometry width="50" height="50" relative="1" as="geometry">
            <mxPoint x="370" y="470" as="sourcePoint" />
            <mxPoint x="450" y="470" as="targetPoint" />
          </mxGeometry>
        </mxCell>
        <mxCell id="EqsUiykx_xDMBYJI1kq2-150" value="WC&lt;br&gt;Func" style="text;html=1;align=center;verticalAlign=middle;whiteSpace=wrap;rounded=0;" vertex="1" parent="1">
          <mxGeometry x="380" y="490" width="60" height="30" as="geometry" />
        </mxCell>
        <mxCell id="EqsUiykx_xDMBYJI1kq2-151" value="WC&lt;div&gt;Cliente&lt;/div&gt;" style="text;html=1;align=center;verticalAlign=middle;whiteSpace=wrap;rounded=0;" vertex="1" parent="1">
          <mxGeometry x="380" y="430" width="60" height="30" as="geometry" />
        </mxCell>
        <mxCell id="EqsUiykx_xDMBYJI1kq2-152" value="Recepção" style="text;html=1;align=center;verticalAlign=middle;whiteSpace=wrap;rounded=0;" vertex="1" parent="1">
          <mxGeometry x="394" y="320" width="60" height="30" as="geometry" />
        </mxCell>
        <mxCell id="EqsUiykx_xDMBYJI1kq2-153" value="Sala&lt;div&gt;Reunião&lt;/div&gt;" style="text;html=1;align=center;verticalAlign=middle;whiteSpace=wrap;rounded=0;" vertex="1" parent="1">
          <mxGeometry x="520" y="390" width="60" height="30" as="geometry" />
        </mxCell>
        <mxCell id="EqsUiykx_xDMBYJI1kq2-154" value="Copa" style="text;html=1;align=center;verticalAlign=middle;whiteSpace=wrap;rounded=0;" vertex="1" parent="1">
          <mxGeometry x="380" y="670" width="60" height="30" as="geometry" />
        </mxCell>
        <mxCell id="EqsUiykx_xDMBYJI1kq2-155" value="Sala&lt;div&gt;Ger 1&lt;/div&gt;" style="text;html=1;align=center;verticalAlign=middle;whiteSpace=wrap;rounded=0;" vertex="1" parent="1">
          <mxGeometry x="380" y="800" width="60" height="30" as="geometry" />
        </mxCell>
        <mxCell id="EqsUiykx_xDMBYJI1kq2-156" value="Sala&lt;div&gt;Ger 2&lt;/div&gt;" style="text;html=1;align=center;verticalAlign=middle;whiteSpace=wrap;rounded=0;" vertex="1" parent="1">
          <mxGeometry x="380" y="960" width="60" height="30" as="geometry" />
        </mxCell>
        <mxCell id="EqsUiykx_xDMBYJI1kq2-157" value="" style="endArrow=none;html=1;rounded=0;" edge="1" parent="1">
          <mxGeometry width="50" height="50" relative="1" as="geometry">
            <mxPoint x="490" y="730" as="sourcePoint" />
            <mxPoint x="610" y="730" as="targetPoint" />
          </mxGeometry>
        </mxCell>
        <mxCell id="EqsUiykx_xDMBYJI1kq2-158" value="" style="endArrow=none;html=1;rounded=0;" edge="1" parent="1">
          <mxGeometry width="50" height="50" relative="1" as="geometry">
            <mxPoint x="490" y="890" as="sourcePoint" />
            <mxPoint x="610" y="890" as="targetPoint" />
          </mxGeometry>
        </mxCell>
        <mxCell id="EqsUiykx_xDMBYJI1kq2-159" value="Sala&lt;div&gt;Func 1&lt;/div&gt;" style="text;html=1;align=center;verticalAlign=middle;whiteSpace=wrap;rounded=0;" vertex="1" parent="1">
          <mxGeometry x="520" y="630" width="60" height="30" as="geometry" />
        </mxCell>
        <mxCell id="EqsUiykx_xDMBYJI1kq2-160" value="Sala&lt;div&gt;Func 2&lt;/div&gt;" style="text;html=1;align=center;verticalAlign=middle;whiteSpace=wrap;rounded=0;" vertex="1" parent="1">
          <mxGeometry x="520" y="800" width="60" height="30" as="geometry" />
        </mxCell>
        <mxCell id="EqsUiykx_xDMBYJI1kq2-161" value="Sala&lt;div&gt;Func 3&lt;/div&gt;" style="text;html=1;align=center;verticalAlign=middle;whiteSpace=wrap;rounded=0;" vertex="1" parent="1">
          <mxGeometry x="520" y="960" width="60" height="30" as="geometry" />
        </mxCell>
        <mxCell id="EqsUiykx_xDMBYJI1kq2-162" value="" style="image;points=[];aspect=fixed;html=1;align=center;shadow=0;dashed=0;image=img/lib/allied_telesis/computer_and_terminals/Personal_Computer.svg;" vertex="1" parent="1">
          <mxGeometry x="580.49" y="850" width="29.51" height="40" as="geometry" />
        </mxCell>
        <mxCell id="EqsUiykx_xDMBYJI1kq2-163" value="" style="image;html=1;image=img/lib/clip_art/computers/Netbook_128x128.png" vertex="1" parent="1">
          <mxGeometry x="409" y="1010" width="40" height="40" as="geometry" />
        </mxCell>
        <mxCell id="EqsUiykx_xDMBYJI1kq2-164" value="" style="image;html=1;image=img/lib/clip_art/computers/Netbook_128x128.png" vertex="1" parent="1">
          <mxGeometry x="409" y="850" width="40" height="40" as="geometry" />
        </mxCell>
        <mxCell id="EqsUiykx_xDMBYJI1kq2-165" value="" style="image;points=[];aspect=fixed;html=1;align=center;shadow=0;dashed=0;image=img/lib/allied_telesis/computer_and_terminals/Personal_Computer.svg;" vertex="1" parent="1">
          <mxGeometry x="580.49" y="1010" width="29.51" height="40" as="geometry" />
        </mxCell>
        <mxCell id="EqsUiykx_xDMBYJI1kq2-166" value="" style="image;points=[];aspect=fixed;html=1;align=center;shadow=0;dashed=0;image=img/lib/allied_telesis/computer_and_terminals/Personal_Computer.svg;" vertex="1" parent="1">
          <mxGeometry x="540" y="330" width="29.51" height="40" as="geometry" />
        </mxCell>
        <mxCell id="EqsUiykx_xDMBYJI1kq2-167" value="" style="image;points=[];aspect=fixed;html=1;align=center;shadow=0;dashed=0;image=img/lib/allied_telesis/computer_and_terminals/Personal_Computer.svg;" vertex="1" parent="1">
          <mxGeometry x="419" y="289.34000000000003" width="30" height="40.66" as="geometry" />
        </mxCell>
        <mxCell id="EqsUiykx_xDMBYJI1kq2-168" value="" style="image;points=[];aspect=fixed;html=1;align=center;shadow=0;dashed=0;image=img/lib/allied_telesis/computer_and_terminals/Personal_Computer.svg;" vertex="1" parent="1">
          <mxGeometry x="580" y="690" width="29.51" height="40" as="geometry" />
        </mxCell>
        <mxCell id="EqsUiykx_xDMBYJI1kq2-169" value="" style="image;points=[];aspect=fixed;html=1;align=center;shadow=0;dashed=0;image=img/lib/allied_telesis/computer_and_terminals/Personal_Computer.svg;" vertex="1" parent="1">
          <mxGeometry x="580.49" y="930" width="29.51" height="40" as="geometry" />
        </mxCell>
        <mxCell id="EqsUiykx_xDMBYJI1kq2-170" value="" style="image;points=[];aspect=fixed;html=1;align=center;shadow=0;dashed=0;image=img/lib/allied_telesis/computer_and_terminals/Personal_Computer.svg;" vertex="1" parent="1">
          <mxGeometry x="500" y="1010" width="29.51" height="40" as="geometry" />
        </mxCell>
        <mxCell id="EqsUiykx_xDMBYJI1kq2-171" value="" style="image;points=[];aspect=fixed;html=1;align=center;shadow=0;dashed=0;image=img/lib/allied_telesis/computer_and_terminals/Personal_Computer.svg;" vertex="1" parent="1">
          <mxGeometry x="500" y="930" width="29.51" height="40" as="geometry" />
        </mxCell>
        <mxCell id="EqsUiykx_xDMBYJI1kq2-172" value="" style="image;points=[];aspect=fixed;html=1;align=center;shadow=0;dashed=0;image=img/lib/allied_telesis/computer_and_terminals/Personal_Computer.svg;" vertex="1" parent="1">
          <mxGeometry x="500" y="849.34" width="29.51" height="40" as="geometry" />
        </mxCell>
        <mxCell id="EqsUiykx_xDMBYJI1kq2-173" value="" style="image;points=[];aspect=fixed;html=1;align=center;shadow=0;dashed=0;image=img/lib/allied_telesis/computer_and_terminals/Personal_Computer.svg;" vertex="1" parent="1">
          <mxGeometry x="580.49" y="770" width="29.51" height="40" as="geometry" />
        </mxCell>
        <mxCell id="EqsUiykx_xDMBYJI1kq2-174" value="" style="image;points=[];aspect=fixed;html=1;align=center;shadow=0;dashed=0;image=img/lib/allied_telesis/computer_and_terminals/Personal_Computer.svg;" vertex="1" parent="1">
          <mxGeometry x="500" y="770" width="29.51" height="40" as="geometry" />
        </mxCell>
        <mxCell id="EqsUiykx_xDMBYJI1kq2-175" value="" style="image;points=[];aspect=fixed;html=1;align=center;shadow=0;dashed=0;image=img/lib/allied_telesis/computer_and_terminals/Personal_Computer.svg;" vertex="1" parent="1">
          <mxGeometry x="500" y="690" width="29.51" height="40" as="geometry" />
        </mxCell>
        <mxCell id="EqsUiykx_xDMBYJI1kq2-176" value="" style="image;points=[];aspect=fixed;html=1;align=center;shadow=0;dashed=0;image=img/lib/allied_telesis/computer_and_terminals/Personal_Computer.svg;" vertex="1" parent="1">
          <mxGeometry x="420.49" y="590" width="29.51" height="40" as="geometry" />
        </mxCell>
        <mxCell id="EqsUiykx_xDMBYJI1kq2-177" value="" style="image;points=[];aspect=fixed;html=1;align=center;shadow=0;dashed=0;image=img/lib/allied_telesis/computer_and_terminals/Personal_Computer.svg;" vertex="1" parent="1">
          <mxGeometry x="580" y="610" width="29.51" height="40" as="geometry" />
        </mxCell>
        <mxCell id="EqsUiykx_xDMBYJI1kq2-178" value="" style="image;points=[];aspect=fixed;html=1;align=center;shadow=0;dashed=0;image=img/lib/allied_telesis/computer_and_terminals/Personal_Computer.svg;" vertex="1" parent="1">
          <mxGeometry x="500" y="610" width="29.51" height="40" as="geometry" />
        </mxCell>
        <mxCell id="EqsUiykx_xDMBYJI1kq2-179" value="" style="image;html=1;image=img/lib/clip_art/computers/Printer_128x128.png" vertex="1" parent="1">
          <mxGeometry x="449.51" y="370" width="40" height="40.66" as="geometry" />
        </mxCell>
        <mxCell id="EqsUiykx_xDMBYJI1kq2-180" value="" style="image;html=1;image=img/lib/clip_art/computers/Server_128x128.png" vertex="1" parent="1">
          <mxGeometry x="370" y="530" width="30" height="20" as="geometry" />
        </mxCell>
        <mxCell id="EqsUiykx_xDMBYJI1kq2-181" value="" style="image;html=1;image=img/lib/clip_art/computers/Server_128x128.png" vertex="1" parent="1">
          <mxGeometry x="419.51" y="530" width="30" height="20" as="geometry" />
        </mxCell>
        <mxCell id="EqsUiykx_xDMBYJI1kq2-182" value="" style="group;shadow=0;glass=0;" vertex="1" connectable="0" parent="1">
          <mxGeometry x="290" y="690" width="400" height="400" as="geometry" />
        </mxCell>
        <mxCell id="EqsUiykx_xDMBYJI1kq2-183" value="" style="image;html=1;image=img/lib/clip_art/computers/Printer_128x128.png" vertex="1" parent="EqsUiykx_xDMBYJI1kq2-182">
          <mxGeometry x="180" y="240" width="21.13" height="20" as="geometry" />
        </mxCell>
        <mxCell id="EqsUiykx_xDMBYJI1kq2-184" value="" style="ellipse;whiteSpace=wrap;html=1;aspect=fixed;fillColor=#dae8fc;strokeColor=#6c8ebf;opacity=30;" vertex="1" parent="EqsUiykx_xDMBYJI1kq2-182">
          <mxGeometry width="400" height="400" as="geometry" />
        </mxCell>
        <mxCell id="EqsUiykx_xDMBYJI1kq2-185" value="" style="endArrow=none;html=1;rounded=0;strokeWidth=2;fillColor=#dae8fc;strokeColor=#6c8ebf;entryX=0.35;entryY=0.85;entryDx=0;entryDy=0;entryPerimeter=0;shadow=1;" edge="1" parent="EqsUiykx_xDMBYJI1kq2-182" target="EqsUiykx_xDMBYJI1kq2-184">
          <mxGeometry width="50" height="50" relative="1" as="geometry">
            <mxPoint x="138.87" y="360" as="sourcePoint" />
            <mxPoint x="188.87" y="310" as="targetPoint" />
          </mxGeometry>
        </mxCell>
        <mxCell id="EqsUiykx_xDMBYJI1kq2-186" value="" style="image;html=1;image=img/lib/clip_art/networking/Wireless_Router_N_128x128.png" vertex="1" parent="EqsUiykx_xDMBYJI1kq2-182">
          <mxGeometry x="188.86562499999997" y="190.625" width="22.265625" height="18.75" as="geometry" />
        </mxCell>
        <mxCell id="EqsUiykx_xDMBYJI1kq2-187" value="" style="endArrow=none;html=1;rounded=0;fillColor=#dae8fc;strokeColor=#6c8ebf;strokeWidth=2;" edge="1" parent="EqsUiykx_xDMBYJI1kq2-182">
          <mxGeometry width="50" height="50" relative="1" as="geometry">
            <mxPoint x="80" y="-59" as="sourcePoint" />
            <mxPoint x="80" y="360" as="targetPoint" />
          </mxGeometry>
        </mxCell>
        <mxCell id="EqsUiykx_xDMBYJI1kq2-188" value="" style="endArrow=none;html=1;rounded=0;fillColor=#dae8fc;strokeColor=#6c8ebf;strokeWidth=2;" edge="1" parent="EqsUiykx_xDMBYJI1kq2-182">
          <mxGeometry width="50" height="50" relative="1" as="geometry">
            <mxPoint x="79" y="360" as="sourcePoint" />
            <mxPoint x="260" y="360" as="targetPoint" />
          </mxGeometry>
        </mxCell>
        <mxCell id="EqsUiykx_xDMBYJI1kq2-189" value="" style="image;html=1;image=img/lib/clip_art/networking/Switch_128x128.png" vertex="1" parent="EqsUiykx_xDMBYJI1kq2-182">
          <mxGeometry x="240" y="320" width="40" height="40" as="geometry" />
        </mxCell>
        <mxCell id="EqsUiykx_xDMBYJI1kq2-190" value="" style="endArrow=none;html=1;rounded=0;fillColor=#dae8fc;strokeColor=#6c8ebf;strokeWidth=2;entryX=0.25;entryY=0.5;entryDx=0;entryDy=0;entryPerimeter=0;exitX=0.5;exitY=0.85;exitDx=0;exitDy=0;exitPerimeter=0;" edge="1" parent="EqsUiykx_xDMBYJI1kq2-182" source="EqsUiykx_xDMBYJI1kq2-184" target="EqsUiykx_xDMBYJI1kq2-189">
          <mxGeometry width="50" height="50" relative="1" as="geometry">
            <mxPoint x="220" y="329.99999999999994" as="sourcePoint" />
            <mxPoint x="260" y="329.99999999999994" as="targetPoint" />
            <Array as="points">
              <mxPoint x="230" y="340" />
            </Array>
          </mxGeometry>
        </mxCell>
        <mxCell id="EqsUiykx_xDMBYJI1kq2-191" value="" style="endArrow=none;html=1;rounded=0;strokeWidth=2;fillColor=#dae8fc;strokeColor=#6c8ebf;exitX=0.75;exitY=0.5;exitDx=0;exitDy=0;exitPerimeter=0;" edge="1" parent="EqsUiykx_xDMBYJI1kq2-182" source="EqsUiykx_xDMBYJI1kq2-189">
          <mxGeometry width="50" height="50" relative="1" as="geometry">
            <mxPoint x="260" y="329.99999999999994" as="sourcePoint" />
            <mxPoint x="270" y="360" as="targetPoint" />
          </mxGeometry>
        </mxCell>
        <mxCell id="EqsUiykx_xDMBYJI1kq2-192" value="" style="endArrow=none;html=1;rounded=0;fillColor=#dae8fc;strokeColor=#6c8ebf;strokeWidth=2;" edge="1" parent="EqsUiykx_xDMBYJI1kq2-182">
          <mxGeometry width="50" height="50" relative="1" as="geometry">
            <mxPoint x="200" y="270" as="sourcePoint" />
            <mxPoint x="230" y="270" as="targetPoint" />
          </mxGeometry>
        </mxCell>
        <mxCell id="EqsUiykx_xDMBYJI1kq2-193" value="" style="endArrow=none;html=1;rounded=0;fillColor=#dae8fc;strokeColor=#6c8ebf;strokeWidth=2;" edge="1" parent="EqsUiykx_xDMBYJI1kq2-182">
          <mxGeometry width="50" height="50" relative="1" as="geometry">
            <mxPoint x="200" y="340" as="sourcePoint" />
            <mxPoint x="199.8" y="200" as="targetPoint" />
          </mxGeometry>
        </mxCell>
        <mxCell id="EqsUiykx_xDMBYJI1kq2-194" value="" style="endArrow=none;html=1;rounded=0;fillColor=#dae8fc;strokeColor=#6c8ebf;strokeWidth=2;" edge="1" parent="EqsUiykx_xDMBYJI1kq2-182">
          <mxGeometry width="50" height="50" relative="1" as="geometry">
            <mxPoint x="199.66000000000003" y="200" as="sourcePoint" />
            <mxPoint x="199.66000000000003" y="30" as="targetPoint" />
          </mxGeometry>
        </mxCell>
        <mxCell id="EqsUiykx_xDMBYJI1kq2-195" value="" style="endArrow=none;html=1;rounded=0;fillColor=#dae8fc;strokeColor=#6c8ebf;strokeWidth=2;entryX=0.8;entryY=0.5;entryDx=0;entryDy=0;entryPerimeter=0;" edge="1" parent="EqsUiykx_xDMBYJI1kq2-182" target="EqsUiykx_xDMBYJI1kq2-184">
          <mxGeometry width="50" height="50" relative="1" as="geometry">
            <mxPoint x="200" y="199.88" as="sourcePoint" />
            <mxPoint x="310" y="199.88" as="targetPoint" />
          </mxGeometry>
        </mxCell>
        <mxCell id="EqsUiykx_xDMBYJI1kq2-196" value="" style="endArrow=none;html=1;rounded=0;fillColor=#dae8fc;strokeColor=#6c8ebf;strokeWidth=2;" edge="1" parent="EqsUiykx_xDMBYJI1kq2-182">
          <mxGeometry width="50" height="50" relative="1" as="geometry">
            <mxPoint x="200" y="100" as="sourcePoint" />
            <mxPoint x="230" y="101" as="targetPoint" />
          </mxGeometry>
        </mxCell>
        <mxCell id="EqsUiykx_xDMBYJI1kq2-197" value="" style="endArrow=none;html=1;rounded=0;fillColor=#dae8fc;strokeColor=#6c8ebf;strokeWidth=2;" edge="1" parent="EqsUiykx_xDMBYJI1kq2-182">
          <mxGeometry width="50" height="50" relative="1" as="geometry">
            <mxPoint x="200" y="40" as="sourcePoint" />
            <mxPoint x="320" y="40" as="targetPoint" />
          </mxGeometry>
        </mxCell>
        <mxCell id="EqsUiykx_xDMBYJI1kq2-198" value="" style="endArrow=none;html=1;rounded=0;fillColor=#d5e8d4;strokeColor=#82b366;strokeWidth=2;" edge="1" parent="EqsUiykx_xDMBYJI1kq2-182">
          <mxGeometry width="50" height="50" relative="1" as="geometry">
            <mxPoint x="80" y="360" as="sourcePoint" />
            <mxPoint x="260" y="360" as="targetPoint" />
          </mxGeometry>
        </mxCell>
        <mxCell id="EqsUiykx_xDMBYJI1kq2-199" value="" style="endArrow=none;html=1;rounded=0;fillColor=#d5e8d4;strokeColor=#82b366;strokeWidth=2;" edge="1" parent="EqsUiykx_xDMBYJI1kq2-182">
          <mxGeometry width="50" height="50" relative="1" as="geometry">
            <mxPoint x="259.92" y="360" as="sourcePoint" />
            <mxPoint x="259.92" y="340" as="targetPoint" />
          </mxGeometry>
        </mxCell>
        <mxCell id="EqsUiykx_xDMBYJI1kq2-200" value="" style="endArrow=none;html=1;rounded=0;fillColor=#dae8fc;strokeColor=#6c8ebf;strokeWidth=2;entryX=0.475;entryY=0.825;entryDx=0;entryDy=0;entryPerimeter=0;" edge="1" parent="EqsUiykx_xDMBYJI1kq2-182">
          <mxGeometry width="50" height="50" relative="1" as="geometry">
            <mxPoint x="220" y="340" as="sourcePoint" />
            <mxPoint x="220" y="330" as="targetPoint" />
          </mxGeometry>
        </mxCell>
        <mxCell id="EqsUiykx_xDMBYJI1kq2-201" value="" style="endArrow=none;html=1;rounded=0;fillColor=#dae8fc;strokeColor=#6c8ebf;strokeWidth=2;entryX=0.475;entryY=0.825;entryDx=0;entryDy=0;entryPerimeter=0;" edge="1" parent="EqsUiykx_xDMBYJI1kq2-182">
          <mxGeometry width="50" height="50" relative="1" as="geometry">
            <mxPoint x="230" y="270" as="sourcePoint" />
            <mxPoint x="230" y="260" as="targetPoint" />
          </mxGeometry>
        </mxCell>
        <mxCell id="EqsUiykx_xDMBYJI1kq2-202" value="" style="endArrow=none;html=1;rounded=0;fillColor=#dae8fc;strokeColor=#6c8ebf;strokeWidth=2;entryX=0.475;entryY=0.825;entryDx=0;entryDy=0;entryPerimeter=0;" edge="1" parent="EqsUiykx_xDMBYJI1kq2-182">
          <mxGeometry width="50" height="50" relative="1" as="geometry">
            <mxPoint x="320" y="260" as="sourcePoint" />
            <mxPoint x="300" y="260" as="targetPoint" />
          </mxGeometry>
        </mxCell>
        <mxCell id="EqsUiykx_xDMBYJI1kq2-203" value="" style="endArrow=none;html=1;rounded=0;fillColor=#dae8fc;strokeColor=#6c8ebf;strokeWidth=2;entryX=0.475;entryY=0.825;entryDx=0;entryDy=0;entryPerimeter=0;" edge="1" parent="EqsUiykx_xDMBYJI1kq2-182">
          <mxGeometry width="50" height="50" relative="1" as="geometry">
            <mxPoint x="230" y="200" as="sourcePoint" />
            <mxPoint x="229.99999999999994" y="180.63" as="targetPoint" />
          </mxGeometry>
        </mxCell>
        <mxCell id="EqsUiykx_xDMBYJI1kq2-204" value="" style="endArrow=none;html=1;rounded=0;fillColor=#dae8fc;strokeColor=#6c8ebf;strokeWidth=2;entryX=0.475;entryY=0.825;entryDx=0;entryDy=0;entryPerimeter=0;" edge="1" parent="EqsUiykx_xDMBYJI1kq2-182">
          <mxGeometry width="50" height="50" relative="1" as="geometry">
            <mxPoint x="310" y="201" as="sourcePoint" />
            <mxPoint x="310" y="180.63" as="targetPoint" />
          </mxGeometry>
        </mxCell>
        <mxCell id="EqsUiykx_xDMBYJI1kq2-205" value="" style="endArrow=none;html=1;rounded=0;fillColor=#dae8fc;strokeColor=#6c8ebf;strokeWidth=2;entryX=0.475;entryY=0.825;entryDx=0;entryDy=0;entryPerimeter=0;" edge="1" parent="EqsUiykx_xDMBYJI1kq2-182">
          <mxGeometry width="50" height="50" relative="1" as="geometry">
            <mxPoint x="320" y="100" as="sourcePoint" />
            <mxPoint x="310" y="100" as="targetPoint" />
          </mxGeometry>
        </mxCell>
        <mxCell id="EqsUiykx_xDMBYJI1kq2-206" value="" style="endArrow=none;html=1;rounded=0;fillColor=#dae8fc;strokeColor=#6c8ebf;strokeWidth=2;entryX=0.475;entryY=0.825;entryDx=0;entryDy=0;entryPerimeter=0;" edge="1" parent="EqsUiykx_xDMBYJI1kq2-182">
          <mxGeometry width="50" height="50" relative="1" as="geometry">
            <mxPoint x="230" y="110" as="sourcePoint" />
            <mxPoint x="230" y="100" as="targetPoint" />
          </mxGeometry>
        </mxCell>
        <mxCell id="EqsUiykx_xDMBYJI1kq2-207" value="" style="endArrow=none;html=1;rounded=0;fillColor=#dae8fc;strokeColor=#6c8ebf;strokeWidth=2;entryX=0.475;entryY=0.825;entryDx=0;entryDy=0;entryPerimeter=0;" edge="1" parent="EqsUiykx_xDMBYJI1kq2-182">
          <mxGeometry width="50" height="50" relative="1" as="geometry">
            <mxPoint x="229" y="40" as="sourcePoint" />
            <mxPoint x="230" y="20" as="targetPoint" />
          </mxGeometry>
        </mxCell>
        <mxCell id="EqsUiykx_xDMBYJI1kq2-208" value="" style="endArrow=none;html=1;rounded=0;fillColor=#dae8fc;strokeColor=#6c8ebf;strokeWidth=2;entryX=0.475;entryY=0.825;entryDx=0;entryDy=0;entryPerimeter=0;" edge="1" parent="EqsUiykx_xDMBYJI1kq2-182">
          <mxGeometry width="50" height="50" relative="1" as="geometry">
            <mxPoint x="309" y="41" as="sourcePoint" />
            <mxPoint x="309.99999999999994" y="20" as="targetPoint" />
          </mxGeometry>
        </mxCell>
        <mxCell id="EqsUiykx_xDMBYJI1kq2-209" value="" style="endArrow=none;html=1;rounded=0;fillColor=#dae8fc;strokeColor=#6c8ebf;strokeWidth=2;entryX=0.475;entryY=0.825;entryDx=0;entryDy=0;entryPerimeter=0;" edge="1" parent="EqsUiykx_xDMBYJI1kq2-182">
          <mxGeometry width="50" height="50" relative="1" as="geometry">
            <mxPoint x="300" y="360" as="sourcePoint" />
            <mxPoint x="300" y="350" as="targetPoint" />
          </mxGeometry>
        </mxCell>
        <mxCell id="EqsUiykx_xDMBYJI1kq2-210" value="" style="endArrow=none;html=1;rounded=0;fillColor=#dae8fc;strokeColor=#6c8ebf;strokeWidth=2;entryX=0;entryY=0.5;entryDx=0;entryDy=0;" edge="1" parent="EqsUiykx_xDMBYJI1kq2-182" target="EqsUiykx_xDMBYJI1kq2-186">
          <mxGeometry width="50" height="50" relative="1" as="geometry">
            <mxPoint x="199.92000000000002" y="205" as="sourcePoint" />
            <mxPoint x="199.92000000000002" y="195" as="targetPoint" />
          </mxGeometry>
        </mxCell>
        <mxCell id="EqsUiykx_xDMBYJI1kq2-211" value="" style="endArrow=none;html=1;rounded=0;strokeWidth=2;fillColor=#dae8fc;strokeColor=#6c8ebf;entryX=0.35;entryY=0.85;entryDx=0;entryDy=0;entryPerimeter=0;shadow=1;" edge="1" parent="EqsUiykx_xDMBYJI1kq2-182">
          <mxGeometry width="50" height="50" relative="1" as="geometry">
            <mxPoint x="134" y="200" as="sourcePoint" />
            <mxPoint x="135.13" y="180" as="targetPoint" />
          </mxGeometry>
        </mxCell>
        <mxCell id="EqsUiykx_xDMBYJI1kq2-212" value="" style="endArrow=none;html=1;rounded=0;fillColor=#dae8fc;strokeColor=#6c8ebf;strokeWidth=2;" edge="1" parent="EqsUiykx_xDMBYJI1kq2-182">
          <mxGeometry width="50" height="50" relative="1" as="geometry">
            <mxPoint x="79" y="200" as="sourcePoint" />
            <mxPoint x="135" y="200" as="targetPoint" />
          </mxGeometry>
        </mxCell>
        <mxCell id="EqsUiykx_xDMBYJI1kq2-213" value="AP 10m" style="text;html=1;align=center;verticalAlign=middle;whiteSpace=wrap;rounded=0;rotation=90;fontSize=6;" vertex="1" parent="EqsUiykx_xDMBYJI1kq2-182">
          <mxGeometry x="151.13" y="190.63" width="60" height="30" as="geometry" />
        </mxCell>
        <mxCell id="EqsUiykx_xDMBYJI1kq2-214" value="" style="endArrow=none;html=1;rounded=0;fillColor=#d5e8d4;strokeColor=#82b366;strokeWidth=2;" edge="1" parent="EqsUiykx_xDMBYJI1kq2-182">
          <mxGeometry width="50" height="50" relative="1" as="geometry">
            <mxPoint x="79" y="361" as="sourcePoint" />
            <mxPoint x="79" y="-60" as="targetPoint" />
          </mxGeometry>
        </mxCell>
        <mxCell id="EqsUiykx_xDMBYJI1kq2-215" value="" style="endArrow=none;html=1;rounded=0;fillColor=#dae8fc;strokeColor=#6c8ebf;strokeWidth=2;" edge="1" parent="EqsUiykx_xDMBYJI1kq2-182">
          <mxGeometry width="50" height="50" relative="1" as="geometry">
            <mxPoint x="320" y="100" as="sourcePoint" />
            <mxPoint x="320" y="-60" as="targetPoint" />
          </mxGeometry>
        </mxCell>
        <mxCell id="EqsUiykx_xDMBYJI1kq2-216" value="" style="endArrow=none;html=1;rounded=0;strokeWidth=2;fillColor=#dae8fc;strokeColor=#6c8ebf;exitX=0.75;exitY=0.5;exitDx=0;exitDy=0;exitPerimeter=0;" edge="1" parent="EqsUiykx_xDMBYJI1kq2-182">
          <mxGeometry width="50" height="50" relative="1" as="geometry">
            <mxPoint x="270" y="360" as="sourcePoint" />
            <mxPoint x="300" y="360" as="targetPoint" />
          </mxGeometry>
        </mxCell>
        <mxCell id="EqsUiykx_xDMBYJI1kq2-217" value="" style="endArrow=none;html=1;rounded=0;fillColor=#dae8fc;strokeColor=#6c8ebf;strokeWidth=2;" edge="1" parent="EqsUiykx_xDMBYJI1kq2-182">
          <mxGeometry width="50" height="50" relative="1" as="geometry">
            <mxPoint x="185" y="251" as="sourcePoint" />
            <mxPoint x="201.13" y="249.86" as="targetPoint" />
            <Array as="points">
              <mxPoint x="201.13" y="249.86" />
            </Array>
          </mxGeometry>
        </mxCell>
        <mxCell id="EqsUiykx_xDMBYJI1kq2-218" value="" style="group;movable=1;resizable=1;rotatable=1;deletable=1;editable=1;locked=0;connectable=1;" vertex="1" connectable="0" parent="1">
          <mxGeometry x="330" y="200" width="320" height="320" as="geometry" />
        </mxCell>
        <mxCell id="EqsUiykx_xDMBYJI1kq2-219" value="" style="ellipse;whiteSpace=wrap;html=1;aspect=fixed;fillColor=#dae8fc;strokeColor=#6c8ebf;opacity=30;movable=0;resizable=0;rotatable=0;deletable=0;editable=0;locked=1;connectable=0;" vertex="1" parent="EqsUiykx_xDMBYJI1kq2-218">
          <mxGeometry width="320" height="320" as="geometry" />
        </mxCell>
        <mxCell id="EqsUiykx_xDMBYJI1kq2-220" value="" style="image;html=1;image=img/lib/clip_art/networking/Wireless_Router_N_128x128.png" vertex="1" parent="EqsUiykx_xDMBYJI1kq2-218">
          <mxGeometry x="151.09249999999997" y="152.5" width="17.8125" height="15" as="geometry" />
        </mxCell>
        <mxCell id="EqsUiykx_xDMBYJI1kq2-221" value="" style="endArrow=none;html=1;rounded=0;fillColor=#dae8fc;strokeColor=#6c8ebf;strokeWidth=2;entryX=0.475;entryY=0.825;entryDx=0;entryDy=0;entryPerimeter=0;" edge="1" parent="EqsUiykx_xDMBYJI1kq2-218">
          <mxGeometry width="50" height="50" relative="1" as="geometry">
            <mxPoint x="100" y="120" as="sourcePoint" />
            <mxPoint x="100" y="110" as="targetPoint" />
            <Array as="points">
              <mxPoint x="100" y="110" />
            </Array>
          </mxGeometry>
        </mxCell>
        <mxCell id="EqsUiykx_xDMBYJI1kq2-222" value="" style="endArrow=none;html=1;rounded=0;fillColor=#dae8fc;strokeColor=#6c8ebf;strokeWidth=2;entryX=0.475;entryY=0.825;entryDx=0;entryDy=0;entryPerimeter=0;exitX=0.136;exitY=0.674;exitDx=0;exitDy=0;exitPerimeter=0;" edge="1" parent="EqsUiykx_xDMBYJI1kq2-218" source="EqsUiykx_xDMBYJI1kq2-220">
          <mxGeometry width="50" height="50" relative="1" as="geometry">
            <mxPoint x="151.09000000000003" y="159.93" as="sourcePoint" />
            <mxPoint x="161.09000000000003" y="159.93" as="targetPoint" />
            <Array as="points">
              <mxPoint x="161.09000000000003" y="159.93" />
            </Array>
          </mxGeometry>
        </mxCell>
        <mxCell id="EqsUiykx_xDMBYJI1kq2-223" value="" style="endArrow=none;html=1;rounded=0;fillColor=#dae8fc;strokeColor=#6c8ebf;strokeWidth=2;" edge="1" parent="EqsUiykx_xDMBYJI1kq2-218">
          <mxGeometry width="50" height="50" relative="1" as="geometry">
            <mxPoint x="159.51" y="180" as="sourcePoint" />
            <mxPoint x="230" y="180" as="targetPoint" />
          </mxGeometry>
        </mxCell>
        <mxCell id="EqsUiykx_xDMBYJI1kq2-224" value="AP 8m" style="text;html=1;align=center;verticalAlign=middle;whiteSpace=wrap;rounded=0;rotation=-90;fontSize=6;" vertex="1" parent="EqsUiykx_xDMBYJI1kq2-218">
          <mxGeometry x="142" y="149" width="60" height="30" as="geometry" />
        </mxCell>
        <mxCell id="EqsUiykx_xDMBYJI1kq2-225" value="" style="endArrow=none;html=1;rounded=0;fillColor=#dae8fc;strokeColor=#6c8ebf;endSize=8;strokeWidth=2;" edge="1" parent="1">
          <mxGeometry width="50" height="50" relative="1" as="geometry">
            <mxPoint x="370" y="540" as="sourcePoint" />
            <mxPoint x="370" y="410" as="targetPoint" />
          </mxGeometry>
        </mxCell>
        <mxCell id="EqsUiykx_xDMBYJI1kq2-226" value="" style="endArrow=none;html=1;rounded=0;fillColor=#dae8fc;strokeColor=#6c8ebf;strokeWidth=2;" edge="1" parent="1">
          <mxGeometry width="50" height="50" relative="1" as="geometry">
            <mxPoint x="469.22" y="410" as="sourcePoint" />
            <mxPoint x="469.22" y="390" as="targetPoint" />
          </mxGeometry>
        </mxCell>
        <mxCell id="EqsUiykx_xDMBYJI1kq2-227" value="" style="endArrow=none;html=1;rounded=0;fillColor=#dae8fc;strokeColor=#6c8ebf;strokeWidth=2;" edge="1" parent="1">
          <mxGeometry width="50" height="50" relative="1" as="geometry">
            <mxPoint x="489.51" y="630" as="sourcePoint" />
            <mxPoint x="489.51" y="720" as="targetPoint" />
          </mxGeometry>
        </mxCell>
        <mxCell id="EqsUiykx_xDMBYJI1kq2-228" value="" style="endArrow=none;html=1;rounded=0;fillColor=#dae8fc;strokeColor=#6c8ebf;strokeWidth=2;" edge="1" parent="1">
          <mxGeometry width="50" height="50" relative="1" as="geometry">
            <mxPoint x="489.51" y="630" as="sourcePoint" />
            <mxPoint x="520" y="630" as="targetPoint" />
          </mxGeometry>
        </mxCell>
        <mxCell id="EqsUiykx_xDMBYJI1kq2-229" value="" style="endArrow=none;html=1;rounded=0;fillColor=#dae8fc;strokeColor=#6c8ebf;strokeWidth=2;" edge="1" parent="1">
          <mxGeometry width="50" height="50" relative="1" as="geometry">
            <mxPoint x="369.43" y="410.65999999999997" as="sourcePoint" />
            <mxPoint x="369.43" y="320" as="targetPoint" />
          </mxGeometry>
        </mxCell>
        <mxCell id="EqsUiykx_xDMBYJI1kq2-230" value="" style="endArrow=none;html=1;rounded=0;fillColor=#dae8fc;strokeColor=#6c8ebf;strokeWidth=2;" edge="1" parent="1">
          <mxGeometry width="50" height="50" relative="1" as="geometry">
            <mxPoint x="560" y="380" as="sourcePoint" />
            <mxPoint x="560" y="350" as="targetPoint" />
          </mxGeometry>
        </mxCell>
        <mxCell id="EqsUiykx_xDMBYJI1kq2-231" value="" style="endArrow=none;html=1;rounded=0;fillColor=#dae8fc;strokeColor=#6c8ebf;strokeWidth=2;" edge="1" parent="1">
          <mxGeometry width="50" height="50" relative="1" as="geometry">
            <mxPoint x="430" y="320" as="sourcePoint" />
            <mxPoint x="370" y="320.34" as="targetPoint" />
          </mxGeometry>
        </mxCell>
        <mxCell id="EqsUiykx_xDMBYJI1kq2-232" value="" style="endArrow=none;html=1;rounded=0;fillColor=#dae8fc;strokeColor=#6c8ebf;strokeWidth=2;" edge="1" parent="1">
          <mxGeometry width="50" height="50" relative="1" as="geometry">
            <mxPoint x="490" y="410" as="sourcePoint" />
            <mxPoint x="489.71" y="360" as="targetPoint" />
          </mxGeometry>
        </mxCell>
        <mxCell id="EqsUiykx_xDMBYJI1kq2-233" value="" style="endArrow=none;html=1;rounded=0;fillColor=#dae8fc;strokeColor=#6c8ebf;strokeWidth=2;" edge="1" parent="1">
          <mxGeometry width="50" height="50" relative="1" as="geometry">
            <mxPoint x="370" y="410" as="sourcePoint" />
            <mxPoint x="489" y="410.66" as="targetPoint" />
          </mxGeometry>
        </mxCell>
        <mxCell id="EqsUiykx_xDMBYJI1kq2-234" value="" style="endArrow=none;html=1;rounded=0;fillColor=#dae8fc;strokeColor=#6c8ebf;strokeWidth=2;" edge="1" parent="1">
          <mxGeometry width="50" height="50" relative="1" as="geometry">
            <mxPoint x="370" y="611" as="sourcePoint" />
            <mxPoint x="370" y="540" as="targetPoint" />
          </mxGeometry>
        </mxCell>
        <mxCell id="EqsUiykx_xDMBYJI1kq2-235" value="" style="endArrow=none;html=1;rounded=0;fillColor=#dae8fc;strokeColor=#6c8ebf;strokeWidth=2;exitX=0.25;exitY=0.5;exitDx=0;exitDy=0;exitPerimeter=0;" edge="1" parent="1" source="EqsUiykx_xDMBYJI1kq2-135">
          <mxGeometry width="50" height="50" relative="1" as="geometry">
            <mxPoint x="390" y="610.48" as="sourcePoint" />
            <mxPoint x="370" y="610" as="targetPoint" />
          </mxGeometry>
        </mxCell>
        <mxCell id="EqsUiykx_xDMBYJI1kq2-236" value="" style="endArrow=none;html=1;rounded=0;fillColor=#f8cecc;strokeColor=#b85450;strokeWidth=2;exitX=0.16;exitY=0.55;exitDx=0;exitDy=0;exitPerimeter=0;" edge="1" parent="1" source="EqsUiykx_xDMBYJI1kq2-239">
          <mxGeometry width="50" height="50" relative="1" as="geometry">
            <mxPoint x="260" y="580" as="sourcePoint" />
            <mxPoint x="390" y="540" as="targetPoint" />
          </mxGeometry>
        </mxCell>
        <mxCell id="EqsUiykx_xDMBYJI1kq2-237" value="" style="endArrow=none;html=1;rounded=0;fillColor=#d5e8d4;strokeColor=#82b366;strokeWidth=2;" edge="1" parent="1">
          <mxGeometry width="50" height="50" relative="1" as="geometry">
            <mxPoint x="369" y="631" as="sourcePoint" />
            <mxPoint x="390" y="610" as="targetPoint" />
          </mxGeometry>
        </mxCell>
        <mxCell id="EqsUiykx_xDMBYJI1kq2-238" value="" style="ellipse;shape=cloud;whiteSpace=wrap;html=1;" vertex="1" parent="1">
          <mxGeometry x="250" y="490" width="40" height="40" as="geometry" />
        </mxCell>
        <mxCell id="EqsUiykx_xDMBYJI1kq2-239" value="" style="ellipse;shape=cloud;whiteSpace=wrap;html=1;" vertex="1" parent="1">
          <mxGeometry x="210" y="570" width="40" height="40" as="geometry" />
        </mxCell>
        <mxCell id="EqsUiykx_xDMBYJI1kq2-240" value="FW" style="text;html=1;align=center;verticalAlign=middle;whiteSpace=wrap;rounded=0;fontFamily=Times New Roman;fontSize=8;" vertex="1" parent="1">
          <mxGeometry x="399" y="545" width="10" height="10" as="geometry" />
        </mxCell>
        <mxCell id="EqsUiykx_xDMBYJI1kq2-241" value="BD" style="text;html=1;align=center;verticalAlign=middle;whiteSpace=wrap;rounded=0;fontFamily=Times New Roman;fontSize=8;" vertex="1" parent="1">
          <mxGeometry x="439" y="545" width="10" height="10" as="geometry" />
        </mxCell>
        <mxCell id="EqsUiykx_xDMBYJI1kq2-242" value="S.I. 2" style="text;html=1;align=center;verticalAlign=middle;whiteSpace=wrap;rounded=0;fontFamily=Times New Roman;fontSize=7;" vertex="1" parent="1">
          <mxGeometry x="210" y="580" width="40" height="20" as="geometry" />
        </mxCell>
        <mxCell id="EqsUiykx_xDMBYJI1kq2-243" value="" style="endArrow=none;html=1;rounded=0;fillColor=#d5e8d4;strokeColor=#82b366;strokeWidth=2;" edge="1" parent="1">
          <mxGeometry width="50" height="50" relative="1" as="geometry">
            <mxPoint x="390" y="603" as="sourcePoint" />
            <mxPoint x="390" y="540" as="targetPoint" />
          </mxGeometry>
        </mxCell>
        <mxCell id="EqsUiykx_xDMBYJI1kq2-244" value="" style="endArrow=none;html=1;rounded=0;fillColor=#dae8fc;strokeColor=#6c8ebf;strokeWidth=2;exitX=0.661;exitY=0.75;exitDx=0;exitDy=0;exitPerimeter=0;" edge="1" parent="1" source="EqsUiykx_xDMBYJI1kq2-176">
          <mxGeometry width="50" height="50" relative="1" as="geometry">
            <mxPoint x="350" y="660" as="sourcePoint" />
            <mxPoint x="400" y="610" as="targetPoint" />
          </mxGeometry>
        </mxCell>
        <mxCell id="EqsUiykx_xDMBYJI1kq2-245" value="" style="endArrow=none;html=1;rounded=0;fillColor=#dae8fc;strokeColor=#6c8ebf;strokeWidth=2;" edge="1" parent="1">
          <mxGeometry width="50" height="50" relative="1" as="geometry">
            <mxPoint x="397" y="604" as="sourcePoint" />
            <mxPoint x="435" y="545" as="targetPoint" />
          </mxGeometry>
        </mxCell>
        <mxCell id="EqsUiykx_xDMBYJI1kq2-246" value="" style="endArrow=none;html=1;rounded=0;fillColor=#dae8fc;strokeColor=#6c8ebf;strokeWidth=2;entryX=0.475;entryY=0.825;entryDx=0;entryDy=0;entryPerimeter=0;" edge="1" parent="1">
          <mxGeometry width="50" height="50" relative="1" as="geometry">
            <mxPoint x="610" y="631" as="sourcePoint" />
            <mxPoint x="600" y="630" as="targetPoint" />
            <Array as="points">
              <mxPoint x="600" y="630" />
            </Array>
          </mxGeometry>
        </mxCell>
        <mxCell id="EqsUiykx_xDMBYJI1kq2-247" value="" style="endArrow=none;html=1;rounded=0;fillColor=#dae8fc;strokeColor=#6c8ebf;strokeWidth=2;entryX=0.475;entryY=0.825;entryDx=0;entryDy=0;entryPerimeter=0;" edge="1" parent="1">
          <mxGeometry width="50" height="50" relative="1" as="geometry">
            <mxPoint x="519.87" y="640" as="sourcePoint" />
            <mxPoint x="519.87" y="630" as="targetPoint" />
            <Array as="points">
              <mxPoint x="519.87" y="630" />
            </Array>
          </mxGeometry>
        </mxCell>
        <mxCell id="EqsUiykx_xDMBYJI1kq2-248" value="" style="endArrow=none;html=1;rounded=0;fillColor=#dae8fc;strokeColor=#6c8ebf;strokeWidth=2;entryX=0.475;entryY=0.825;entryDx=0;entryDy=0;entryPerimeter=0;" edge="1" parent="1">
          <mxGeometry width="50" height="50" relative="1" as="geometry">
            <mxPoint x="439" y="620" as="sourcePoint" />
            <mxPoint x="439" y="610" as="targetPoint" />
            <Array as="points">
              <mxPoint x="439" y="610" />
            </Array>
          </mxGeometry>
        </mxCell>
        <mxCell id="EqsUiykx_xDMBYJI1kq2-249" value="" style="endArrow=none;html=1;rounded=0;fillColor=#dae8fc;strokeColor=#6c8ebf;strokeWidth=2;entryX=0.475;entryY=0.825;entryDx=0;entryDy=0;entryPerimeter=0;exitX=0.688;exitY=0.469;exitDx=0;exitDy=0;exitPerimeter=0;" edge="1" parent="1" source="EqsUiykx_xDMBYJI1kq2-218">
          <mxGeometry width="50" height="50" relative="1" as="geometry">
            <mxPoint x="560" y="360" as="sourcePoint" />
            <mxPoint x="560" y="350" as="targetPoint" />
            <Array as="points">
              <mxPoint x="560" y="350" />
            </Array>
          </mxGeometry>
        </mxCell>
        <mxCell id="EqsUiykx_xDMBYJI1kq2-250" value="" style="group" vertex="1" connectable="0" parent="1">
          <mxGeometry x="250" y="360" width="50" height="89.67000000000002" as="geometry" />
        </mxCell>
        <mxCell id="EqsUiykx_xDMBYJI1kq2-251" value="" style="group" vertex="1" connectable="0" parent="EqsUiykx_xDMBYJI1kq2-250">
          <mxGeometry width="50" height="24.670000000000016" as="geometry" />
        </mxCell>
        <mxCell id="EqsUiykx_xDMBYJI1kq2-252" value="" style="endArrow=none;html=1;rounded=0;endSize=7;fillColor=#f8cecc;strokeColor=#b85450;strokeWidth=2;" edge="1" parent="EqsUiykx_xDMBYJI1kq2-251">
          <mxGeometry width="50" height="50" relative="1" as="geometry">
            <mxPoint y="20" as="sourcePoint" />
            <mxPoint x="50" y="20" as="targetPoint" />
          </mxGeometry>
        </mxCell>
        <mxCell id="EqsUiykx_xDMBYJI1kq2-253" value="&lt;font style=&quot;font-size: 5px;&quot;&gt;Serviço de Internet&lt;/font&gt;" style="text;html=1;align=center;verticalAlign=middle;whiteSpace=wrap;rounded=0;fontSize=10;" vertex="1" parent="EqsUiykx_xDMBYJI1kq2-251">
          <mxGeometry width="50" height="20" as="geometry" />
        </mxCell>
        <mxCell id="EqsUiykx_xDMBYJI1kq2-254" value="" style="group" vertex="1" connectable="0" parent="EqsUiykx_xDMBYJI1kq2-250">
          <mxGeometry y="24.670000000000016" width="50" height="25.329999999999984" as="geometry" />
        </mxCell>
        <mxCell id="EqsUiykx_xDMBYJI1kq2-255" value="" style="endArrow=none;html=1;rounded=0;endSize=7;fillColor=#d5e8d4;strokeColor=#82b366;strokeWidth=2;" edge="1" parent="EqsUiykx_xDMBYJI1kq2-254">
          <mxGeometry width="50" height="50" relative="1" as="geometry">
            <mxPoint y="25.329999999999984" as="sourcePoint" />
            <mxPoint x="50" y="25.329999999999984" as="targetPoint" />
          </mxGeometry>
        </mxCell>
        <mxCell id="EqsUiykx_xDMBYJI1kq2-256" value="&lt;font style=&quot;font-size: 5px;&quot;&gt;Gbit (30 metros)&lt;/font&gt;" style="text;html=1;align=center;verticalAlign=middle;whiteSpace=wrap;rounded=0;fontSize=10;" vertex="1" parent="EqsUiykx_xDMBYJI1kq2-254">
          <mxGeometry y="5.33" width="50" height="24.67" as="geometry" />
        </mxCell>
        <mxCell id="EqsUiykx_xDMBYJI1kq2-257" value="" style="group" vertex="1" connectable="0" parent="EqsUiykx_xDMBYJI1kq2-250">
          <mxGeometry y="65" width="50" height="24.670000000000016" as="geometry" />
        </mxCell>
        <mxCell id="EqsUiykx_xDMBYJI1kq2-258" value="&lt;font style=&quot;font-size: 4px;&quot;&gt;100 Mbps (75 metros)&lt;/font&gt;" style="text;html=1;align=center;verticalAlign=middle;whiteSpace=wrap;rounded=0;fontSize=10;" vertex="1" parent="EqsUiykx_xDMBYJI1kq2-257">
          <mxGeometry width="50" height="24.67" as="geometry" />
        </mxCell>
        <mxCell id="EqsUiykx_xDMBYJI1kq2-259" value="" style="endArrow=none;html=1;rounded=0;endSize=7;fillColor=#dae8fc;strokeColor=#6c8ebf;strokeWidth=2;" edge="1" parent="EqsUiykx_xDMBYJI1kq2-257">
          <mxGeometry width="50" height="50" relative="1" as="geometry">
            <mxPoint y="20.329999999999984" as="sourcePoint" />
            <mxPoint x="50" y="20.329999999999984" as="targetPoint" />
          </mxGeometry>
        </mxCell>
        <mxCell id="EqsUiykx_xDMBYJI1kq2-260" value="" style="endArrow=none;html=1;rounded=0;fillColor=#f8cecc;strokeColor=#b85450;strokeWidth=2;" edge="1" parent="1">
          <mxGeometry width="50" height="50" relative="1" as="geometry">
            <mxPoint x="390" y="540.24" as="sourcePoint" />
            <mxPoint x="369" y="540" as="targetPoint" />
          </mxGeometry>
        </mxCell>
        <mxCell id="EqsUiykx_xDMBYJI1kq2-261" value="S.I. 1" style="text;html=1;align=center;verticalAlign=middle;whiteSpace=wrap;rounded=0;fontFamily=Times New Roman;fontSize=7;" vertex="1" parent="1">
          <mxGeometry x="250" y="500" width="40" height="20" as="geometry" />
        </mxCell>
        <mxCell id="EqsUiykx_xDMBYJI1kq2-262" value="CPD" style="text;html=1;align=center;verticalAlign=middle;whiteSpace=wrap;rounded=0;shadow=1;" vertex="1" parent="1">
          <mxGeometry x="380" y="570" width="60" height="30" as="geometry" />
        </mxCell>
        <mxCell id="EqsUiykx_xDMBYJI1kq2-263" value="" style="endArrow=none;html=1;rounded=0;fillColor=#dae8fc;strokeColor=#6c8ebf;strokeWidth=2;exitX=0.5;exitY=0.85;exitDx=0;exitDy=0;exitPerimeter=0;" edge="1" parent="1">
          <mxGeometry width="50" height="50" relative="1" as="geometry">
            <mxPoint x="370" y="1048" as="sourcePoint" />
            <mxPoint x="429" y="1048" as="targetPoint" />
            <Array as="points">
              <mxPoint x="400" y="1048" />
            </Array>
          </mxGeometry>
        </mxCell>
        <mxCell id="EqsUiykx_xDMBYJI1kq2-264" value="" style="endArrow=none;html=1;rounded=0;fillColor=#dae8fc;strokeColor=#6c8ebf;strokeWidth=2;entryX=0.475;entryY=0.825;entryDx=0;entryDy=0;entryPerimeter=0;" edge="1" parent="1">
          <mxGeometry width="50" height="50" relative="1" as="geometry">
            <mxPoint x="610" y="951" as="sourcePoint" />
            <mxPoint x="610" y="889" as="targetPoint" />
          </mxGeometry>
        </mxCell>
        <mxCell id="EqsUiykx_xDMBYJI1kq2-265" value="" style="image;html=1;image=img/lib/clip_art/computers/Printer_128x128.png" vertex="1" parent="1">
          <mxGeometry x="468.38" y="650" width="21.13" height="20" as="geometry" />
        </mxCell>
        <mxCell id="EqsUiykx_xDMBYJI1kq2-266" value="" style="endArrow=none;html=1;rounded=0;fillColor=#dae8fc;strokeColor=#6c8ebf;strokeWidth=2;" edge="1" parent="1">
          <mxGeometry width="50" height="50" relative="1" as="geometry">
            <mxPoint x="477" y="660" as="sourcePoint" />
            <mxPoint x="489.51" y="659.86" as="targetPoint" />
          </mxGeometry>
        </mxCell>
      </root>
    </mxGraphModel>
  </diagram>
</mxfile>
